<svg width="20" height="20" viewBox="0 0 20 20" fill="none" xmlns="http://www.w3.org/2000/svg">
<path d="M14.166 17.7087H5.83268C2.79102 17.7087 1.04102 15.9587 1.04102 12.917V7.08366C1.04102 4.04199 2.79102 2.29199 5.83268 2.29199H14.166C17.2077 2.29199 18.9577 4.04199 18.9577 7.08366V12.917C18.9577 15.9587 17.2077 17.7087 14.166 17.7087ZM5.83268 3.54199C3.44935 3.54199 2.29102 4.70033 2.29102 7.08366V12.917C2.29102 15.3003 3.44935 16.4587 5.83268 16.4587H14.166C16.5493 16.4587 17.7077 15.3003 17.7077 12.917V7.08366C17.7077 4.70033 16.5493 3.54199 14.166 3.54199H5.83268Z" fill="#1E1E1E"/>
<path d="M9.999 10.725C9.299 10.725 8.59067 10.5083 8.049 10.0666L5.44067 7.98331C5.174 7.76664 5.124 7.37497 5.34067 7.10831C5.55734 6.84164 5.94901 6.79164 6.21567 7.00831L8.824 9.09164C9.45733 9.59998 10.5323 9.59998 11.1657 9.09164L13.774 7.00831C14.0407 6.79164 14.4407 6.83331 14.649 7.10831C14.8657 7.37497 14.824 7.77498 14.549 7.98331L11.9407 10.0666C11.4073 10.5083 10.699 10.725 9.999 10.725Z" fill="#1E1E1E"/>
</svg>
